<svg height='100px' width='100px'  fill="#000000" xmlns="http://www.w3.org/2000/svg" viewBox="0 0 25 25" x="0px" y="0px"><title>Profile Security</title><g data-name="Icon 1"><path d="M12.5,22.74a2,2,0,0,1-1-.29A14.67,14.67,0,0,1,4.37,9.93V6.73A2,2,0,0,1,5.64,4.85l6.11-2.44a2,2,0,0,1,1.5,0l6.11,2.44a2,2,0,0,1,1.27,1.88v3.2a14.67,14.67,0,0,1-7.09,12.52A2,2,0,0,1,12.5,22.74Zm0-19.48a1,1,0,0,0-.38.08L6,5.78a1,1,0,0,0-.64,1v3.2A13.66,13.66,0,0,0,12,21.59a1,1,0,0,0,1.06,0,13.66,13.66,0,0,0,6.6-11.66V6.73a1,1,0,0,0-.64-1L12.88,3.34A1,1,0,0,0,12.5,3.26Z"></path><path d="M12.5,13A3.5,3.5,0,1,1,16,9.5,3.5,3.5,0,0,1,12.5,13Zm0-6A2.5,2.5,0,1,0,15,9.5,2.5,2.5,0,0,0,12.5,7Z"></path><path d="M17.36,17.92a5.5,5.5,0,0,0-9.72,0l-.88-.46a6.49,6.49,0,0,1,11.48,0Z"></path></g></svg>